<svg width="13" height="15" viewBox="0 0 13 15" fill="none" xmlns="http://www.w3.org/2000/svg">
<path d="M6.5 7.25C8.41406 7.25 10 5.69141 10 3.75C10 1.83594 8.41406 0.25 6.5 0.25C4.55859 0.25 3 1.83594 3 3.75C3 5.69141 4.55859 7.25 6.5 7.25ZM8.93359 8.125H8.46875C7.86719 8.42578 7.21094 8.5625 6.5 8.5625C5.78906 8.5625 5.10547 8.42578 4.50391 8.125H4.03906C2.01562 8.125 0.375 9.79297 0.375 11.8164V12.9375C0.375 13.6758 0.949219 14.25 1.6875 14.25H11.3125C12.0234 14.25 12.625 13.6758 12.625 12.9375V11.8164C12.625 9.79297 10.957 8.125 8.93359 8.125Z" fill="#4392BB"/>
</svg>
