<svg width="9" height="11" viewBox="0 0 9 11" fill="none" xmlns="http://www.w3.org/2000/svg">
<path d="M4.06836 5.65039C4.29688 5.87891 4.67773 5.87891 4.93164 5.65039L8.38477 2.19727C8.61328 1.94336 8.61328 1.5625 8.38477 1.33398L7.80078 0.75C7.54688 0.521484 7.16602 0.521484 6.9375 0.75L4.47461 3.21289L2.03711 0.75C1.80859 0.521484 1.42773 0.521484 1.17383 0.75L0.615234 1.33398C0.361328 1.5625 0.361328 1.94336 0.615234 2.19727L4.06836 5.65039ZM4.93164 10.5254L8.38477 7.07227C8.61328 6.81836 8.61328 6.4375 8.38477 6.20898L7.80078 5.625C7.57227 5.39648 7.16602 5.39648 6.9375 5.625L4.5 8.08789L2.03711 5.625C1.80859 5.39648 1.42773 5.39648 1.17383 5.625L0.615234 6.20898C0.361328 6.4375 0.361328 6.81836 0.615234 7.07227L4.06836 10.5254C4.29688 10.7539 4.67773 10.7539 4.93164 10.5254Z" fill="#4392BB"/>
</svg>
